<?xml version="1.0" encoding="UTF-8" standalone="no"?>
<!-- Generator: Adobe Illustrator 19.1.0, SVG Export Plug-In . SVG Version: 6.00 Build 0)  -->

<svg
   xmlns:dc="http://purl.org/dc/elements/1.1/"
   xmlns:cc="http://creativecommons.org/ns#"
   xmlns:rdf="http://www.w3.org/1999/02/22-rdf-syntax-ns#"
   xmlns:svg="http://www.w3.org/2000/svg"
   xmlns="http://www.w3.org/2000/svg"
   xmlns:sodipodi="http://sodipodi.sourceforge.net/DTD/sodipodi-0.dtd"
   xmlns:inkscape="http://www.inkscape.org/namespaces/inkscape"
   version="1.1"
   id="Capa_1"
   x="0px"
   y="0px"
   viewBox="0 0 22.915606 22.921318"
   xml:space="preserve"
   sodipodi:docname="down.svg"
   width="22.915606"
   height="22.921318"
   inkscape:version="0.92.2 (5c3e80d, 2017-08-06)"><metadata
     id="metadata39"><rdf:RDF><cc:Work
         rdf:about=""><dc:format>image/svg+xml</dc:format><dc:type
           rdf:resource="http://purl.org/dc/dcmitype/StillImage" /><dc:title></dc:title></cc:Work></rdf:RDF></metadata><defs
     id="defs37" /><sodipodi:namedview
     pagecolor="#ffffff"
     bordercolor="#666666"
     borderopacity="1"
     objecttolerance="10"
     gridtolerance="10"
     guidetolerance="10"
     inkscape:pageopacity="0"
     inkscape:pageshadow="2"
     inkscape:window-width="1920"
     inkscape:window-height="1001"
     id="namedview35"
     showgrid="false"
     inkscape:pagecheckerboard="true"
     fit-margin-top="0"
     fit-margin-left="0"
     fit-margin-right="0"
     fit-margin-bottom="0"
     inkscape:zoom="7.4944427"
     inkscape:cx="11.461725"
     inkscape:cy="11.453902"
     inkscape:window-x="-9"
     inkscape:window-y="-9"
     inkscape:window-maximized="1"
     inkscape:current-layer="Capa_1" /><path
     style="fill:#ff4f4f;fill-opacity:1"
     d="m 22.915441,7.7353059 c 0.01061,-0.617304 -0.494268,-1.122178 -1.122179,-1.122178 -0.606697,0 -1.111572,0.504874 -1.110865,1.110865 V 19.104169 L 1.9058844,0.32765567 C 1.4674782,-0.10933633 0.7716851,-0.10933633 0.333986,0.32836277 -0.1037131,0.76606187 -0.1150268,1.4731687 0.3226723,1.9108678 L 19.099185,20.687381 7.7296154,20.676775 c -0.617304,0.01061 -1.122885,0.516188 -1.122178,1.122178 0,0.627911 0.505581,1.133492 1.122178,1.122179 H 21.803869 c 0.617304,0.01061 1.122178,-0.494268 1.110865,-1.110865 z"
     id="path2"
     inkscape:connector-curvature="0" /><g
     id="g4"
     transform="translate(-4.2832746,-4.2775841)" /><g
     id="g6"
     transform="translate(-4.2832746,-4.2775841)" /><g
     id="g8"
     transform="translate(-4.2832746,-4.2775841)" /><g
     id="g10"
     transform="translate(-4.2832746,-4.2775841)" /><g
     id="g12"
     transform="translate(-4.2832746,-4.2775841)" /><g
     id="g14"
     transform="translate(-4.2832746,-4.2775841)" /><g
     id="g16"
     transform="translate(-4.2832746,-4.2775841)" /><g
     id="g18"
     transform="translate(-4.2832746,-4.2775841)" /><g
     id="g20"
     transform="translate(-4.2832746,-4.2775841)" /><g
     id="g22"
     transform="translate(-4.2832746,-4.2775841)" /><g
     id="g24"
     transform="translate(-4.2832746,-4.2775841)" /><g
     id="g26"
     transform="translate(-4.2832746,-4.2775841)" /><g
     id="g28"
     transform="translate(-4.2832746,-4.2775841)" /><g
     id="g30"
     transform="translate(-4.2832746,-4.2775841)" /><g
     id="g32"
     transform="translate(-4.2832746,-4.2775841)" /></svg>