<?xml version="1.0" encoding="UTF-8" standalone="no"?>
<!-- Generator: Adobe Illustrator 19.1.0, SVG Export Plug-In . SVG Version: 6.00 Build 0)  -->

<svg
   xmlns:dc="http://purl.org/dc/elements/1.1/"
   xmlns:cc="http://creativecommons.org/ns#"
   xmlns:rdf="http://www.w3.org/1999/02/22-rdf-syntax-ns#"
   xmlns:svg="http://www.w3.org/2000/svg"
   xmlns="http://www.w3.org/2000/svg"
   xmlns:sodipodi="http://sodipodi.sourceforge.net/DTD/sodipodi-0.dtd"
   xmlns:inkscape="http://www.inkscape.org/namespaces/inkscape"
   version="1.1"
   id="Capa_1"
   x="0px"
   y="0px"
   viewBox="0 0 22.921318 22.915606"
   xml:space="preserve"
   sodipodi:docname="up.svg"
   width="22.921318"
   height="22.915606"
   inkscape:version="0.92.2 (5c3e80d, 2017-08-06)"><metadata
     id="metadata39"><rdf:RDF><cc:Work
         rdf:about=""><dc:format>image/svg+xml</dc:format><dc:type
           rdf:resource="http://purl.org/dc/dcmitype/StillImage" /><dc:title></dc:title></cc:Work></rdf:RDF></metadata><defs
     id="defs37" /><sodipodi:namedview
     pagecolor="#ffffff"
     bordercolor="#666666"
     borderopacity="1"
     objecttolerance="10"
     gridtolerance="10"
     guidetolerance="10"
     inkscape:pageopacity="0"
     inkscape:pageshadow="2"
     inkscape:window-width="1920"
     inkscape:window-height="1001"
     id="namedview35"
     showgrid="false"
     fit-margin-top="0"
     fit-margin-left="0"
     fit-margin-right="0"
     fit-margin-bottom="0"
     inkscape:pagecheckerboard="true"
     inkscape:zoom="7.4944427"
     inkscape:cx="11.467416"
     inkscape:cy="11.461725"
     inkscape:window-x="-9"
     inkscape:window-y="-9"
     inkscape:window-maximized="1"
     inkscape:current-layer="Capa_1" /><path
     style="fill:#44d944;fill-opacity:1"
     d="M 7.7353059,1.641241e-4 C 7.1180019,-0.01044288 6.6131279,0.49443172 6.6131279,1.1223425 c 0,0.6066976 0.504874,1.1115719 1.110865,1.1108648 H 19.104169 L 0.32765567,21.009721 c -0.436992,0.438406 -0.436992,1.134199 7.071e-4,1.571898 0.4376991,0.4377 1.14480593,0.449013 1.58250503,0.01131 L 20.687381,3.8164194 20.676775,15.18599 c 0.01061,0.617304 0.516188,1.122885 1.122178,1.122178 0.627911,0 1.133492,-0.505581 1.122179,-1.122178 V 1.1117359 C 22.931738,0.49443172 22.426864,-0.01044248 21.810267,8.712241e-4 Z"
     id="path2"
     inkscape:connector-curvature="0" /><g
     id="g4"
     transform="translate(-4.2775841,-4.2911203)" /><g
     id="g6"
     transform="translate(-4.2775841,-4.2911203)" /><g
     id="g8"
     transform="translate(-4.2775841,-4.2911203)" /><g
     id="g10"
     transform="translate(-4.2775841,-4.2911203)" /><g
     id="g12"
     transform="translate(-4.2775841,-4.2911203)" /><g
     id="g14"
     transform="translate(-4.2775841,-4.2911203)" /><g
     id="g16"
     transform="translate(-4.2775841,-4.2911203)" /><g
     id="g18"
     transform="translate(-4.2775841,-4.2911203)" /><g
     id="g20"
     transform="translate(-4.2775841,-4.2911203)" /><g
     id="g22"
     transform="translate(-4.2775841,-4.2911203)" /><g
     id="g24"
     transform="translate(-4.2775841,-4.2911203)" /><g
     id="g26"
     transform="translate(-4.2775841,-4.2911203)" /><g
     id="g28"
     transform="translate(-4.2775841,-4.2911203)" /><g
     id="g30"
     transform="translate(-4.2775841,-4.2911203)" /><g
     id="g32"
     transform="translate(-4.2775841,-4.2911203)" /></svg>